C:\GBW_MyPrograms\PredSimResults\Vitruvian_man\IG_v30ms_QR.mot
version=1
nRows=14
nColumns=35
inDegrees=yes
endheader
                time	         pelvis_tilt	           pelvis_tx	           pelvis_ty	       hip_flexion_r	        knee_angle_r	       ankle_angle_r	         mtp_angle_r	       hip_flexion_l	        knee_angle_l	       ankle_angle_l	         mtp_angle_l	    lumbar_extension	          arm_flex_r	          arm_flex_l	        elbow_flex_r	        elbow_flex_l	hamstrings_r/activation	bifemsh_r/activation	glut_max_r/activation	iliopsoas_r/activation	rect_fem_r/activation	  vasti_r/activation	gastroc_r/activation	 soleus_r/activation	tib_ant_r/activation	hamstrings_l/activation	bifemsh_l/activation	glut_max_l/activation	iliopsoas_l/activation	rect_fem_l/activation	  vasti_l/activation	gastroc_l/activation	 soleus_l/activation	tib_ant_l/activation	
          0.00000000	         -8.77415284	          0.00000000	          0.98814441	         32.61757813	        -23.58597796	         -1.42434471	          0.36170294	         10.23835238	        -50.91937680	        -18.66034306	         10.90287913	        -15.93355021	        -38.26865181	        -38.26642175	         98.10702437	         98.10655165	          0.78926100	          0.11768645	          0.51028355	          0.05443578	          0.05174296	          0.08013304	          0.05441094	          0.08406482	          0.53413172	          0.05000717	          0.51610794	          0.05000178	          0.66759194	          0.97074083	          0.05000123	          0.13604301	          0.07584373	          0.33082449	
          0.00528655	         -8.85906217	          0.01592252	          0.98552158	         32.42942072	        -24.16995819	         -1.11118618	          0.08843206	         11.24186600	        -52.44710827	        -17.90392486	         10.18433247	        -15.77703194	        -37.49134047	        -37.48918003	         96.81708137	         96.81659730	          0.72535107	          0.10816025	          0.60297646	          0.05003186	          0.05000168	          0.19711316	          0.05000532	          0.07725785	          0.49088159	          0.05002427	          0.52531319	          0.05000159	          0.61353448	          0.97836452	          0.05000095	          0.12502916	          0.06970257	          0.33490412	
          0.01057311	         -8.97281325	          0.03200750	          0.98253859	         32.26411195	        -25.17701031	         -0.32737825	         -0.42866339	         12.30490432	        -53.94337678	        -17.14009778	          9.51219809	        -15.54356099	        -36.81825061	        -36.81616475	         95.67753042	         95.67703473	          0.66661616	          0.09940331	          0.68039693	          0.05000596	          0.05438761	          0.35904984	          0.18652845	          0.25476808	          0.45113295	          0.05000560	          0.55208115	          0.05000163	          0.56385423	          0.98400042	          0.05000099	          0.11490712	          0.06405876	          0.33141177	
          0.01585966	         -9.11364906	          0.04823620	          0.97928923	         32.06005530	        -26.41867524	          0.87680456	         -0.62100573	         13.42229399	        -55.39501862	        -16.38245200	          8.88187889	        -15.24194795	        -36.24987326	        -36.24786198	         94.68872075	         94.68821348	          0.61263726	          0.09135576	          0.74687776	          0.05000499	          0.05000538	          0.51509236	          0.17144352	          0.23981384	          0.41460299	          0.05016212	          0.57845620	          0.05000163	          0.51819678	          0.98815514	          0.05000099	          0.10560466	          0.05887205	          0.33509627	
          0.02114621	         -9.28205282	          0.06457042	          0.97589463	         31.74591027	        -27.50427984	          2.37952893	         -0.52280736	         14.59340550	        -56.78917074	        -15.63114397	          8.28834059	        -14.88173416	        -35.78438705	        -35.78245108	         93.85001958	         93.84950066	          0.56302928	          0.08396001	          0.77962661	          0.05000329	          0.05000396	          0.64145522	          0.17496214	          0.30182583	          0.38103106	          0.06598698	          0.60400507	          0.05000188	          0.47623644	          0.95889427	          0.05000106	          0.09705549	          0.05410574	          0.33327446	
          0.02643276	         -9.48060465	          0.08093126	          0.97248261	         31.34064899	        -28.38351772	          3.84753991	         -0.20692234	         15.82597578	        -58.12139611	        -14.87277694	          7.72856118	        -14.47499067	        -35.41567969	        -35.41382285	         93.16191832	         93.16138772	          0.51743829	          0.07716310	          0.78294269	          0.05000268	          0.05000361	          0.73488919	          0.21788899	          0.36862531	          0.35017763	          0.06764176	          0.64639495	          0.05000198	          0.43767389	          0.92121319	          0.05000109	          0.08919862	          0.05000257	          0.33544028	
          0.03171932	         -9.70947040	          0.09723662	          0.96917084	         30.89953641	        -29.14372641	          5.28254784	          0.35908568	         17.12577667	        -59.39018170	        -14.09933412	          7.20318508	        -14.03634006	        -35.13656839	        -35.13479630	         92.62464545	         92.62410318	          0.47553902	          0.07091661	          0.76966589	          0.05000274	          0.05000410	          0.80397501	          0.25555223	          0.44068126	          0.32182257	          0.06216940	          0.70076657	          0.05000192	          0.40223405	          0.87684857	          0.05000109	          0.08197800	          0.05000303	          0.33880170	
          0.03700587	         -9.96763748	          0.11342658	          0.96605488	         30.46944282	        -29.84910867	          6.60043008	          1.13949156	         18.49485981	        -60.59123264	        -13.34418327	          6.71429616	        -13.57804319	        -34.94248404	        -34.94080228	         92.23798093	         92.23742700	          0.43703255	          0.06517607	          0.75983756	          0.05000244	          0.05000393	          0.85505757	          0.29577113	          0.51305334	          0.29576358	          0.05714046	          0.75953010	          0.05000190	          0.36966412	          0.81915872	          0.05000111	          0.07534219	          0.05000259	          0.34321522	
          0.04229242	        -10.24823179	          0.12948285	          0.96320592	         30.06348513	        -30.52551243	          7.75265524	          2.08881895	         19.92299933	        -61.71835325	        -12.62992647	          6.25651626	        -13.11287977	        -34.83376746	        -34.83218048	         92.00189128	         92.00132570	          0.40164414	          0.05990076	          0.74387130	          0.05000251	          0.05000434	          0.89282838	          0.33488178	          0.58283197	          0.27181472	          0.05251815	          0.82140653	          0.05000177	          0.33973197	          0.75285109	          0.05000110	          0.06924403	          0.05000253	          0.34771830	
          0.04757897	        -10.53835612	          0.14542506	          0.96067306	         29.66013073	        -31.15924987	          8.72969882	          3.16846794	         21.38791632	        -62.76641322	        -11.93800526	          5.82586389	        -12.65500034	        -34.81477763	        -34.81328812	         91.91658185	         91.91600461	          0.36912134	          0.05505352	          0.72172728	          0.05000273	          0.05000509	          0.92075637	          0.37258718	          0.64786203	          0.24980508	          0.05000549	          0.86648035	          0.05000156	          0.31222453	          0.69189427	          0.05000109	          0.06364025	          0.05000262	          0.35174596	
          0.05286553	        -10.82709295	          0.16128975	          0.95848069	         29.22640478	        -31.71688597	          9.54004347	          4.34642314	         22.86784791	        -63.73280817	        -11.24185117	          5.42163907	        -12.21332214	        -34.89188015	        -34.89048903	         91.98218505	         91.98159616	          0.33923212	          0.05060178	          0.67666463	          0.05000265	          0.05000507	          0.94140649	          0.40839744	          0.70666892	          0.22957763	          0.05000610	          0.88210887	          0.05000152	          0.28694721	          0.63587103	          0.05000110	          0.05849133	          0.05000251	          0.35634956	
          0.05815208	        -11.10701864	          0.17711303	          0.95663673	         28.73342564	        -32.16583960	         10.19724052	          5.59619786	         24.34531118	        -64.61568456	        -10.53110324	          5.04419727	        -11.79245272	        -35.07049160	        -35.06919882	         92.19868707	         92.19808654	          0.31176325	          0.05001612	          0.62187449	          0.05000250	          0.05000504	          0.95667529	          0.44346558	          0.75951419	          0.21098804	          0.05000523	          0.81083950	          0.05000154	          0.26373302	          0.58438367	          0.05000115	          0.05376286	          0.05000245	          0.35898341	
          0.06343863	        -11.37245573	          0.19292452	          0.95514263	         28.16003013	        -32.48249985	         10.71315104	          6.89538139	         25.80448272	        -65.40884934	         -9.81517863	          4.69330802	        -11.39591985	        -35.35338802	        -35.35219354	         92.56602061	         92.56540843	          0.28651880	          0.05001743	          0.57151928	          0.05000230	          0.05000501	          0.96796499	          0.47779634	          0.80579305	          0.19390369	          0.05000468	          0.74518818	          0.05000158	          0.25085925	          0.53706540	          0.05000122	          0.05002080	          0.05000242	          0.36170036	
          0.06872518	        -11.61742231	          0.20874789	          0.95399889	         27.48976364	        -32.65078741	         11.09683398	          8.22476245	         27.22959530	        -66.10411289	         -9.11010175	          4.36702631	        -11.02860974	        -35.74104275	        -35.73994657	         93.08423940	         93.08361557	          0.26331876	          0.05001355	          0.52524121	          0.05000207	          0.05000511	          0.97631211	          0.51236387	          0.84566461	          0.17820268	          0.05000407	          0.68484920	          0.05000166	          0.24652954	          0.49357897	          0.05000134	          0.05002250	          0.05000233	          0.36482296	
